<svg xmlns="http://www.w3.org/2000/svg" xmlns:xlink="http://www.w3.org/1999/xlink" width="523.563" height="319.526" viewBox="0 0 523.563 319.526"><defs><clipPath id="a"><rect width="523.563" height="319.526" fill="none"/></clipPath></defs><g transform="translate(-618.437 -141.47)"><g transform="translate(455.445 141.47)"><g transform="translate(162.992)"><g clip-path="url(#a)"><g transform="translate(0 50.262)"><path d="M1045.38,426.3a29.369,29.369,0,0,0-39.541-12.3,32.269,32.269,0,0,0-31.668-21.209,29.362,29.362,0,0,0-18.942-45.958,42.917,42.917,0,0,0-41.329-70.39A42.907,42.907,0,0,0,840.677,306.8q0,1.678.127,3.323a42.9,42.9,0,0,0,7.861,62.5,17.9,17.9,0,0,0-11.042,16.244c0,9.908,8.587,17.939,19.181,17.939s19.18-8.031,19.18-17.939a16.927,16.927,0,0,0-2.141-8.228,43.15,43.15,0,0,0,6.552-.53,32.316,32.316,0,0,0,41.028,9.263c.745-.394,1.461-.821,2.162-1.263q.326.7.691,1.4a29.363,29.363,0,0,0,25.781,15.636,32.276,32.276,0,0,0-3.138,4.844,20.36,20.36,0,0,0-6.148-.947c-10.593,0-19.18,8.032-19.18,17.939a16.937,16.937,0,0,0,2.2,8.343c-9.56,1.018-16.987,8.606-16.987,17.819,0,9.908,8.587,17.939,19.18,17.939s19.18-8.031,19.18-17.939a16.938,16.938,0,0,0-2.2-8.343,20.073,20.073,0,0,0,5.822-1.522,32.316,32.316,0,0,0,41.818,10.369c.745-.394,1.461-.821,2.162-1.263.218.468.447.934.691,1.4A29.371,29.371,0,1,0,1045.38,426.3Z" transform="translate(-564.033 -208.754)" fill="#dcf3f7"/><path d="M377.535,361.25a42.907,42.907,0,1,0-9.244-84.813A42.907,42.907,0,0,0,295.066,306.8q0,1.677.127,3.323a42.942,42.942,0,0,0-6.911,43.782,42.894,42.894,0,0,0-22.106,37.534q0,1.677.127,3.323a42.908,42.908,0,1,0,69.875,49.286,42.916,42.916,0,0,0,26.854-81.5c.722-1.016,1.4-2.062,2.037-3.141A42.9,42.9,0,0,0,377.535,361.25Z" transform="translate(-218.993 -208.753)" fill="#dcf3f7"/><path d="M1236.282,729.839a29.371,29.371,0,1,0,29.371-29.372A29.371,29.371,0,0,0,1236.282,729.839Z" transform="translate(-807.6 -470.956)" fill="#dcf3f7"/><path d="M162.992,705.045a29.371,29.371,0,1,0,29.371-29.372A29.371,29.371,0,0,0,162.992,705.045Z" transform="translate(-162.992 -456.065)" fill="#dcf3f7"/><ellipse cx="29.371" cy="27.47" rx="29.371" ry="27.47" transform="translate(180.778 120.588)" fill="#fff"/><g transform="translate(349.735 134.737)"><path d="M1079.736,522.825a29.371,29.371,0,1,1-38.661,15.188A29.371,29.371,0,0,1,1079.736,522.825Z" transform="translate(-1038.621 -497.529)" fill="#fff"/><path d="M1069.645,464.936a20.99,20.99,0,1,1-27.629,10.854A20.99,20.99,0,0,1,1069.645,464.936Z" transform="translate(-1039.606 -463.182)" fill="#fff"/></g><path d="M508.653,367.347a15.9,15.9,0,0,0-1.688.093,19.6,19.6,0,0,0,1.689-7.961c0-11.5-9.968-20.821-22.263-20.821a23.1,23.1,0,0,0-14.352,4.91,30.151,30.151,0,0,0-22.5-9.815A31.225,31.225,0,0,0,440.752,335a40.184,40.184,0,0,0-79.525,7.953c0,.29,0,.579.011.867h-.011a29.365,29.365,0,0,0-23.756,46.637,40.193,40.193,0,0,0-6.214,64.95c.219.189.441.375.663.559l-.007.008a29.371,29.371,0,1,0,46.716,3.028,40.421,40.421,0,0,0,18.743-30.093,30.505,30.505,0,0,0,33.056-36.6,23.089,23.089,0,0,0,9.155-5.247,31.13,31.13,0,0,0,9.958,1.623,29.939,29.939,0,0,0,24.288-12.023A23.245,23.245,0,0,0,486.39,380.3a23.6,23.6,0,0,0,7.655-1.263,13.074,13.074,0,0,0-.177,2.138c0,7.637,6.619,13.828,14.785,13.828s14.786-6.191,14.786-13.828S516.819,367.347,508.653,367.347Z" transform="translate(-255.783 -232.242)" fill="#fff" opacity="0.4"/><g transform="translate(67.687 171.387)"><path d="M391.2,658.139a29.371,29.371,0,1,1-29.371-29.372A29.371,29.371,0,0,1,391.2,658.139Z" transform="translate(-332.459 -599.28)" fill="#fff"/><path d="M439.38,575.931a20.99,20.99,0,1,1-20.99-20.99A20.99,20.99,0,0,1,439.38,575.931Z" transform="translate(-371.462 -554.941)" fill="#fff"/></g><path d="M962.4,467.377a32.267,32.267,0,0,0-18.5-36.965,29.36,29.36,0,0,0-27.392-41.061,29.366,29.366,0,0,0-39.119-40.538,32.278,32.278,0,0,0-45.463-17.478A32.158,32.158,0,0,0,818.468,344.8a20.344,20.344,0,0,0-6.148-.947c-10.594,0-19.181,8.032-19.181,17.939a16.938,16.938,0,0,0,2.2,8.343c-9.56,1.019-16.987,8.606-16.987,17.819,0,9.907,8.587,17.939,19.18,17.939s19.181-8.032,19.181-17.939a16.936,16.936,0,0,0-2.2-8.343,20.056,20.056,0,0,0,5.822-1.522,32.143,32.143,0,0,0,11.93,10.542c-7.627,2.37-13.13,9.093-13.13,17.023a16.936,16.936,0,0,0,2.2,8.343c-9.56,1.019-16.987,8.606-16.987,17.819,0,9.907,8.587,17.939,19.18,17.939s19.181-8.032,19.181-17.939a16.94,16.94,0,0,0-2.2-8.343,20.06,20.06,0,0,0,5.822-1.522,32.326,32.326,0,0,0,37.26,12.347,17.029,17.029,0,0,0-1.5,5.946c-8.555-4.388-18.925-2.113-23.975,5.594-5.43,8.287-2.649,19.711,6.211,25.517s20.445,3.794,25.875-4.493a16.937,16.937,0,0,0,2.732-8.184,20.072,20.072,0,0,0,5.7,1.918,32.316,32.316,0,0,0,29.295,31.593c.839.078,1.672.114,2.5.128-.075.511-.138,1.026-.186,1.547A29.371,29.371,0,1,0,962.4,467.377Z" transform="translate(-532.572 -247.001)" fill="#fff" opacity="0.4"/><g transform="translate(219.057 96.395)"><g transform="translate(0 26.713)"><circle cx="40.161" cy="40.161" r="40.161" transform="translate(53.855 0.657) rotate(-0.469)" fill="#f7f7f7"/><circle cx="40.161" cy="40.161" r="40.161" transform="matrix(1, -0.008, 0.008, 1, 18.974, 38.141)" fill="#f7f7f7"/><circle cx="40.161" cy="40.161" r="40.161" transform="translate(0 84.806) rotate(-0.469)" fill="#f7f7f7"/><path d="M991.174,561.134a29.371,29.371,0,1,0,29.371-29.372A29.371,29.371,0,0,0,991.174,561.134Z" transform="translate(-879.448 -492.741)" fill="#f7f7f7"/><path d="M947.653,658.655a29.371,29.371,0,1,0,29.371-29.371A29.371,29.371,0,0,0,947.653,658.655Z" transform="translate(-853.31 -551.312)" fill="#f7f7f7"/><path d="M1109.282,709.155a24.581,24.581,0,1,0,24.581-24.582A24.581,24.581,0,0,0,1109.282,709.155Z" transform="translate(-950.382 -584.518)" fill="#f7f7f7"/><path d="M1164.908,721.541a24.581,24.581,0,1,0,24.581-24.582A24.581,24.581,0,0,0,1164.908,721.541Z" transform="translate(-983.791 -591.956)" fill="#f7f7f7"/><path d="M959.645,727.4a24.582,24.582,0,1,0,24.581-24.581A24.582,24.582,0,0,0,959.645,727.4Z" transform="translate(-860.512 -595.477)" fill="#f7f7f7"/><path d="M877.605,758.163a24.581,24.581,0,1,0,24.581-24.581A24.581,24.581,0,0,0,877.605,758.163Z" transform="translate(-811.239 -613.952)" fill="#f7f7f7"/><path d="M874.116,615.88a29.371,29.371,0,1,0,29.371-29.372A29.371,29.371,0,0,0,874.116,615.88Z" transform="translate(-809.144 -525.621)" fill="#f7f7f7"/><path d="M800.579,685.669A29.371,29.371,0,1,0,829.95,656.3,29.371,29.371,0,0,0,800.579,685.669Z" transform="translate(-764.978 -567.535)" fill="#f7f7f7"/><path d="M1035.746,713.944a29.371,29.371,0,1,0,29.371-29.371A29.371,29.371,0,0,0,1035.746,713.944Z" transform="translate(-906.217 -584.518)" fill="#f7f7f7"/><path d="M1035.746,634.671a29.371,29.371,0,1,0,29.371-29.372A29.371,29.371,0,0,0,1035.746,634.671Z" transform="translate(-906.217 -536.906)" fill="#f7f7f7"/></g><circle cx="32.314" cy="32.314" r="32.314" transform="matrix(0.998, -0.055, 0.055, 0.998, 52.701, 3.574)" fill="#f7f7f7"/></g><ellipse cx="19.181" cy="17.939" rx="19.181" ry="17.939" transform="translate(267.494 132.731)" fill="#fff"/><ellipse cx="14.785" cy="13.828" rx="14.785" ry="13.828" transform="translate(239.521 140.954)" fill="#fff"/><g transform="translate(7.25 89.959)"><g transform="translate(0 33.149)"><circle cx="40.161" cy="40.161" r="40.161" transform="matrix(0.008, -1, 1, 0.008, 95.449, 80.319)" fill="#f2f2f2"/><circle cx="40.161" cy="40.161" r="40.161" transform="matrix(0.008, -1, 1, 0.008, 130.33, 117.803)" fill="#f2f2f2"/><circle cx="40.161" cy="40.161" r="40.161" transform="translate(149.304 164.468) rotate(-89.531)" fill="#f2f2f2"/><path d="M433.156,658.655a29.371,29.371,0,1,1-29.371-29.371A29.371,29.371,0,0,1,433.156,658.655Z" transform="translate(-297.219 -551.312)" fill="#f2f2f2"/><path d="M285.932,709.155a24.581,24.581,0,1,1-24.581-24.582A24.581,24.581,0,0,1,285.932,709.155Z" transform="translate(-214.551 -584.518)" fill="#f2f2f2"/><path d="M230.306,721.541a24.581,24.581,0,1,1-24.581-24.582A24.581,24.581,0,0,1,230.306,721.541Z" transform="translate(-181.143 -591.957)" fill="#f2f2f2"/><path d="M435.569,727.4a24.581,24.581,0,1,1-24.581-24.581A24.581,24.581,0,0,1,435.569,727.4Z" transform="translate(-304.422 -595.477)" fill="#f2f2f2"/><path d="M517.609,758.163a24.581,24.581,0,1,1-24.581-24.581A24.581,24.581,0,0,1,517.609,758.163Z" transform="translate(-353.694 -613.952)" fill="#f2f2f2"/><path d="M506.693,615.88a29.371,29.371,0,1,1-29.371-29.372A29.371,29.371,0,0,1,506.693,615.88Z" transform="translate(-341.385 -525.621)" fill="#f2f2f2"/><path d="M580.229,685.669A29.371,29.371,0,1,1,550.858,656.3,29.371,29.371,0,0,1,580.229,685.669Z" transform="translate(-385.55 -567.535)" fill="#f2f2f2"/><path d="M345.063,713.944a29.371,29.371,0,1,1-29.371-29.371A29.371,29.371,0,0,1,345.063,713.944Z" transform="translate(-244.311 -584.518)" fill="#f2f2f2"/></g><circle cx="40.161" cy="40.161" r="40.161" transform="translate(108.057 80.319) rotate(-89.531)" fill="#f2f2f2"/></g><path d="M625.242,348.173c.195-.087,6.7,11.39,46.676,1.85l11.269,6.707,40,74.8L655.306,486.7l-71.25-63.107S603.408,357.9,625.242,348.173Z" transform="translate(-415.879 -259.371)" fill="#dbdbdb"/><path d="M717.511,407.359c-.822-3.377,0-19.417,0-19.417-1.647-3.8-9.06-14.352-15.239-17.728a94.476,94.476,0,0,0-25.948-8.865c-5.566-.856-19.029-3.253-27.175-4.718,5.781,8.344,40.764,59.078,40.6,64.609-.174,6.028-7.363,19.807-11.859,24.861-2.224,2.5-55.349,48.9-55.349,48.9s-57.567-53.408-62.364-62.07,6.288-38.031,26.806-75.766c-14.494,2.664-44.791,9.4-51.931,20.221-2.307,3.5-1.941,22.37-.985,32.11,1.006,10.24,4.428,13.635,4.428,13.635l4.793,2.8c11.532,31.235,25.81,42.484,29.18,50.846,4.594,11.4,2.8,31.462,2.8,31.462h96.439s-1.028-26.667,3.333-34.611c6.573-11.972,14.877-29.126,15.7-31.236s5.766-17.306,5.766-17.306S718.335,410.735,717.511,407.359Z" transform="translate(-385.412 -264.452)" fill="#c4c4c4"/><path d="M671.609,175.863a13.883,13.883,0,0,0,2.9,9.731,21.489,21.489,0,0,1,2.882,6.754v24.9s24.279,13.661,47.707-.422v.026c-.089-.016,0-.026,0-.026l-.766-29.615a31.415,31.415,0,0,0,4.118-10.906c.74-3.606-2.047-5.156-2.047-6.422s3.3-28.613,5.766-31.145,9.472-8.442,9.472-8.442l-9.884,2.532,5.766-5.065s-4.118.422-7.824.843-36.656-3.8-39.539-2.532-10.3,9.709-10.3,9.709l-8.98,9.708,3.254,25.325S671.816,173.427,671.609,175.863Z" transform="translate(-468.023 -125.841)" fill="#c7c7c7"/><path d="M609.62,487.492S635.155,501,641.745,499.311s23.476-11.819,34.6-8.02,26.772,5.487,30.066-.844,8.649-9.708,5.766-19.416a68.258,68.258,0,0,1-2.883-17.519s23.477,35.669,21.418,39.046-64.526,57.4-64.526,57.4l-37.455-25.073a45.848,45.848,0,0,0,15.079-9.538c7-6.753,30.477-14.351,38.715-6.753s18.946,10.553,22.653,0-31.3-15.617-47.365-10.553-33.361,1.267-40.363,14.352c0,0-11.943-8.02-13.591-14.773l-3.294-13.507S603.03,480.316,609.62,487.492Z" transform="translate(-425.791 -322.637)" fill="#393b41" opacity="0.2"/><path d="M515.877,368.338s-9.885,6.754-20.181,3.8-18.123-16.462-19.357-18.572-31.3.423-39.54,4.643l-5.353,7.491,10.3,3.061s26.447-13.929,31.14-10.552,9.163,12.262,14.753,19S509.287,381,509.287,381Z" transform="translate(-324.223 -262.154)" fill="#3a48cf"/><path d="M611.075,335.673s-12.356,13.085-15.65,15.2-8.237,5.909-8.237,5.909h9.885s-14.827,21.527-16.886,26.17-9.473,32.08-7.826,37.145,61.368,46.853,67.546,53.184,6.929,9.709,9.436,5.91S719.4,423.047,719.4,423.047s1.646-12.663-4.118-20.261-7-17.306-7.414-19.839-18.946-20.26-21.828-23.215,2.059-8.864,2.059-8.864L665.782,331.45v9.073s27.254,42,30.96,51.712,13.181,21.526,12.357,24.9-56.086,56.138-59.757,56.561-52.682-44.321-60.1-53.607-1.235-29.125,0-31.657,19.289-37.162,22.653-42.21,6.177-5.713,6.177-5.713V331.45Z" transform="translate(-408.712 -249.328)" fill="#f2f2f2"/><path d="M564.883,462.973c.264.272,2.344,2.456,3.008,1.57l1.2-3.564s-8.321-.073-12.028-.917c-.86-.2-1.854.341-2.87,1.31C558.37,460.762,561.3,460.523,564.883,462.973Z" transform="translate(-397.941 -326.547)" fill="#9e9e9e"/><path d="M595.794,484.542c0,1.266.618,3.8,3.089,4.433a21.834,21.834,0,0,0-.187,12.7,17.257,17.257,0,0,0-.368-3.733c-.836-4.261,2.661-7.176.373-10.131s-4.452-11.674-3.369-14.7c.947-2.651-8.721-2.01-11.143-1.809a7.2,7.2,0,0,0-.133,1.209C591.47,470.612,596.412,476.944,595.794,484.542Z" transform="translate(-415.879 -333.193)" fill="#828282"/><path d="M495.957,445.607c-2.471-.633-3.089-3.167-3.089-4.433.618-7.6-4.324-13.929-11.738-12.029l1.489-2.047c.044-.455-1.225-.847-1.489-1.12-3.585-2.449-7.747-1.937-11.93-1.328-2.567,2.449-5.275,7.682-6.342,11.032-.351,2.191-.329,1.037,0,0,.7-4.378,2.624-12.624,8.388-14.874,0,0,4.987-26.346-5.721-21.281a72.539,72.539,0,0,0-7.87,9.977c-2.35,3.565-12.767,3.282-21.829,8.982s-11.944,10.343-15.65,16.252-11.533,18.572-4.943,28.7S429.648,485.389,442,475.681s17.709-9.921,20.592-8.971,11.121,2.639,11.121,2.639l21.685-8.773a6.075,6.075,0,0,0,.368-2.266A21.834,21.834,0,0,1,495.957,445.607Z" transform="translate(-312.953 -289.826)" fill="#dbdbdb"/><path d="M929.173,462.973c-.266.272-2.346,2.456-3.01,1.57l-1.194-3.564s8.321-.073,12.028-.917c.86-.2,1.854.341,2.869,1.31C935.685,460.762,932.756,460.523,929.173,462.973Z" transform="translate(-620.627 -326.547)" fill="#828282"/><path d="M897.453,484.542c0,1.266-.619,3.8-3.09,4.433a21.841,21.841,0,0,1,.187,12.7,17.306,17.306,0,0,1,.368-3.733c.838-4.261-2.66-7.176-.373-10.131s4.452-11.674,3.371-14.7c-.948-2.651,8.72-2.01,11.143-1.809a7.107,7.107,0,0,1,.132,1.209C901.777,470.612,896.834,476.944,897.453,484.542Z" transform="translate(-601.882 -333.193)" fill="#828282"/><path d="M895.276,445.607c2.471-.633,3.09-3.167,3.09-4.433-.619-7.6,4.324-13.929,11.737-12.029l-1.49-2.047c-.044-.455,1.225-.847,1.49-1.12,3.585-2.449,7.749-1.937,11.93-1.328,2.567,2.449,5.275,7.682,6.342,11.032.352,2.191.33,1.037,0,0-.7-4.378-2.622-12.624-8.388-14.874,0,0-4.986-26.346,5.722-21.281a72.6,72.6,0,0,1,7.87,9.977c2.35,3.565,12.768,3.282,21.829,8.982s11.944,10.343,15.652,16.252S982.59,453.31,976,463.44s-14.416,21.949-26.771,12.241-17.708-9.921-20.592-8.971-11.122,2.639-11.122,2.639l-21.685-8.773a6.083,6.083,0,0,1-.368-2.266A21.84,21.84,0,0,0,895.276,445.607Z" transform="translate(-602.795 -289.826)" fill="#dbdbdb"/><path d="M938.7,322.568c-4.117,1.264-19.357,24.062-20.181,28.815s-1.237,5.8-7.8,9.176-33.383-7.6-42.032-9.286c-5.2-1.016-9.661-4.323-12.386-6.8-1.1,1.971-2.049,4.667-.381,6.376.9.919,3.31,3.269,6.219,6.146,2.21,1.59,4.783,3.363,7.784,5.343,23.058,15.209,38.3,7.5,45.716,2.862s24.711-19.416,24.711-19.416l10.3-29.125S942.817,321.3,938.7,322.568Z" transform="translate(-578.612 -240.446)" fill="#3a48cf"/><path d="M715.613,157.768s15.293,6.506,16.434,7.039,14.987-5.059,14.987-5.059S732.921,164.044,715.613,157.768Z" transform="translate(-494.891 -145.016)" fill="#dbdbdb"/><path d="M700.244,230.943c-5.456-3.725-10.165-5.407-12.073-10.959s-8.2-12.165-9.723-14.541c-5.571-8.672-3.26-12.47.044-14.5.173.925-.29.939,1.946,9.668l-1.336-8.937s-2.171-27.785,6.973-33.9c0,0-8.791,3.942-10.009,10.03-.616,3.081,1.75,22.241,1.75,22.241a8.29,8.29,0,0,0-3.591,6.246c-.35,4.314,4.406,10.063,4.926,11.971s2.066,11.971,2.066,11.971,17.523,12.839,22.9,13.359,5.81,0,5.81,0S704.119,233.587,700.244,230.943Z" transform="translate(-470.022 -145.016)" fill="#dbdbdb"/><path d="M734.21,761.687H635.128l1.277-25.476h96.442Z" transform="translate(-446.553 -492.423)" fill="#c4c4c4"/></g></g><path d="M470.4,520.791l-.919.172-.052-.383Z" transform="translate(-347.037 -312.655)" fill="#dbdbdb"/><path d="M537.672,492.245A2.238,2.238,0,0,1,537.7,492c.008-.084.028-.192.052-.316v-.012c.008-.02.016-.04.024-.064V491.6a3.374,3.374,0,0,0,.156-.583C537.76,492.077,537.676,492.357,537.672,492.245Z" transform="translate(-388.021 -294.901)" fill="#dbdbdb"/><path d="M539.964,486.209a1.306,1.306,0,0,1-.072.172C539.924,486.3,539.948,486.241,539.964,486.209Z" transform="translate(-389.355 -292.013)" fill="#dbdbdb"/><path d="M542.5,477.729c-.379.711-.735,1.434-1.058,2.137A16.449,16.449,0,0,1,542.5,477.729Z" transform="translate(-390.285 -286.919)" fill="#dbdbdb"/><path d="M538.042,491.019a3.862,3.862,0,0,1-.18.655A6.247,6.247,0,0,1,538.042,491.019Z" transform="translate(-388.135 -294.901)" fill="#dbdbdb"/><path d="M535.872,494.131a5.614,5.614,0,0,0,.795-1.442,3.15,3.15,0,0,0-.076.579Z" transform="translate(-386.94 -295.904)" fill="#dbdbdb"/><path d="M540.069,489.169c-.995.28-1.69.543-1.757.739C538.4,489.4,539.155,489.2,540.069,489.169Z" transform="translate(-388.406 -293.79)" fill="#dbdbdb"/><path d="M444.085,485.189c.331.052.527.084.563.092-1.2,1.142-2.5,2.424-3.926,3.826A43.83,43.83,0,0,1,444.085,485.189Z" transform="translate(-329.794 -291.4)" fill="#dbdbdb"/><path d="M484.39,479.244c-.188.144-6.215,4.7-15.074-4.857-7.693-8.3-11.575-6.578-18.7.164l3.259-3.583c2.836-2.225,6.151-3.974,9.266-3.547C468.51,468.157,472.036,483.666,484.39,479.244Z" transform="translate(-335.734 -280.69)" fill="#dbdbdb"/><path d="M537.808,492.5c-.032.148-.056.284-.076.391.008-.084.028-.192.052-.316v-.012C537.792,492.543,537.8,492.523,537.808,492.5Z" transform="translate(-388.057 -295.79)" fill="#dbdbdb"/><path d="M487.659,483.6c-2.472-.635-3.091-3.167-3.091-4.433.619-7.6-4.322-13.927-11.739-12.03l1.49-2.045c.044-.455-1.222-.847-1.49-1.118-3.583-2.448-7.745-1.937-11.926-1.33a23.86,23.86,0,0,0-4.022,5.708.055.055,0,0,0-.012.016c-.379.711-.735,1.434-1.058,2.137-.036.076-.068.152-.1.224l-.072.156c-.008.016-.016.036-.024.056-.02.04-.036.084-.052.124-.036.08-.068.152-.1.22-.016.032-.032.068-.044.1s-.024.06-.036.088q-.036.084-.06.144c-.008.02-.016.036-.024.052a.278.278,0,0,0-.016.04c-.008.02-.012.032-.012.032s0,0-.008.008a.014.014,0,0,1,0,.008,1.3,1.3,0,0,1-.072.172.725.725,0,0,1-.032.084.207.207,0,0,1-.024.064c-.016.044-.032.092-.052.136s-.036.1-.056.148c-.164.451-.359,1.01-.435,1.226l-.024.072c0,.008,0,.012-.008.02-.168,1.058-.252,1.338-.256,1.226v.02l-.719.863a4.168,4.168,0,0,1-.272.324l0,0c-.188.144-6.215,4.7-15.074-4.857-7.693-8.3-11.575-6.578-18.7.164a.154.154,0,0,1-.024.02c-1.2,1.142-2.5,2.42-3.922,3.822a43.7,43.7,0,0,1,3.359-3.914c-.983-.164-3.119-.527-5.576-.975-3.778-.691-8.3-1.594-10.488-2.3-3.6,4.4-4.018,11.263-4.018,11.263a59.64,59.64,0,0,0,2.672,15.845c2.141,6.938,9.905,24.316,18.309,26.417s21.616-10.5,21.616-10.5a16.13,16.13,0,0,1,10.2-4.953,54.949,54.949,0,0,1,13.089,1.062c.132.024.248.048.339.068l.12.024h.008a.517.517,0,0,0,.1.02l.1.024,21.684-8.771a6.078,6.078,0,0,0,.367-2.269A21.824,21.824,0,0,1,487.659,483.6Z" transform="translate(-304.653 -277.558)" fill="#ababab"/><path d="M538.392,488.945c.124-.387.272-.8.435-1.226C538.664,488.17,538.468,488.73,538.392,488.945Z" transform="translate(-388.454 -292.919)" fill="#dbdbdb"/><path d="M540.082,486.129a.381.381,0,0,0,.02-.04c-.008.02-.012.032-.012.032S540.086,486.125,540.082,486.129Z" transform="translate(-389.469 -291.94)" fill="#dbdbdb"/><path d="M478.456,479.244c-.188.144-6.215,4.7-15.074-4.857-7.693-8.3-11.575-6.578-18.7.164a.15.15,0,0,1-.024.02c-1.2,1.142-2.5,2.42-3.922,3.822a43.681,43.681,0,0,1,3.359-3.914,37.524,37.524,0,0,1,3.846-3.511c2.836-2.225,6.151-3.974,9.266-3.547C462.576,468.157,466.1,483.666,478.456,479.244Z" transform="translate(-329.8 -280.69)" fill="#828282"/><path d="M440.758,481.862l-5.576-.974.814-1.238Z" transform="translate(-326.467 -288.073)" fill="#828282"/><path d="M985.079,491.988c-1.114,5.284-8.252,23.569-20.518,28.031S938.6,506.595,938.6,506.595c-5.188-2.632-8.1-2.5-9.965-1.889-2.884.951-11.12,2.636-11.12,2.636l-21.688-8.771a6.077,6.077,0,0,1-.367-2.269,21.792,21.792,0,0,0-.188-12.7c2.472-.635,3.091-3.167,3.091-4.433-.619-7.6,4.326-13.927,11.739-12.03l-1.49-2.045c-.044-.455,1.222-.847,1.49-1.118,3.583-2.448,7.749-1.937,11.93-1.33,2.564,2.448,5.272,7.681,6.339,11.032.351,2.193.331,1.038,0,0l1.246,2.432,0,0,.108.076c.855.591,6.67,4.018,14.966-4.933,9-9.706,12.442-5.232,22.647,4l.008.008,3.858-2.289,7.181-4.254S986.194,486.708,985.079,491.988Z" transform="translate(-602.792 -277.558)" fill="#ababab"/><path d="M1018.992,478.449c-10.2-9.234-13.648-13.708-22.646-4-8.3,8.951-14.111,5.524-14.966,4.933l-.108-.076c12.354,4.421,15.856-11.307,21.253-11.823C1009.031,466.858,1018.7,478.106,1018.992,478.449Z" transform="translate(-654.443 -280.75)" fill="#828282"/><path d="M978.142,491.019c.331,1.039.352,2.193,0,0Z" transform="translate(-652.563 -294.901)" fill="#c4c4c4"/></g><path d="M737.022,232.62q-.349.011-.7.016c-.413.006-.825-.011-1.222-.028l-.519-.02c-.281.009-3.318-.37-4.753-.616a4.582,4.582,0,0,1-3.714-2.908q-.76-1.878-1.534-3.749l-.03-.071q-.5-1.223-1-2.442c-.146-.358-.269-.715-.359-.987a1.341,1.341,0,0,0-1.375-1.042c-.056,0-.111,0-.164,0a1.373,1.373,0,0,0-1.338.963c-.7,1.564-1.434,3.141-2.146,4.666l-.566,1.213c-.069.15-.151.294-.233.438s-.156.274-.219.413a4.992,4.992,0,0,1-4.3,3.057c-1.214.144-2.336.23-3.43.263a25.765,25.765,0,0,1-7.978-.915c-.073-.021-.145-.046-.217-.072s-.127-.045-.186-.062a3.733,3.733,0,0,1-2.839-3l-.016-.073c-.207-1-.421-2.031-.691-3.029a1.55,1.55,0,0,0-.47-.787,1.685,1.685,0,0,1-.744-1.45c0-.365.021-.732.045-1.108.03-.441.094-1.356,1.148-1.388.04,0,.081,0,.123,0,0,0,.049-.031.22-.181l.041-.036a.551.551,0,0,0,.171-.211c.729-2.833,3.011-3.179,5.093-3.281l.268-.014c.745-.037,1.491-.074,2.237-.1.86-.026,1.612-.03,2.3-.01,8.813.244,18.8.52,28.751.884a54.728,54.728,0,0,1,5.964.54,3.251,3.251,0,0,1,2.581,2.525l.027.094a1.815,1.815,0,0,0,.275.658,2.323,2.323,0,0,0,.864.664.942.942,0,0,1,.725.87l.012.2c.023.376.047.766.038,1.155a1.811,1.811,0,0,1-.978,1.742,1.229,1.229,0,0,0-.385.668c-.223.671-.429,1.356-.629,2.018-.162.539-.324,1.078-.5,1.614a3.1,3.1,0,0,1-2.1,2.033A18.653,18.653,0,0,1,737.022,232.62Zm-8.533-14.113c-.643.019-1.132.05-1.451.091a2.356,2.356,0,0,0-1.689.882,2.533,2.533,0,0,0-.3,2.021,24.366,24.366,0,0,0,3.457,8.254,1.894,1.894,0,0,0,1.386.8,36.5,36.5,0,0,0,8.049.575l.248-.008a10.405,10.405,0,0,0,3.917-.873,2.239,2.239,0,0,0,1.463-1.849c.042-.344.087-.689.133-1.033a30.967,30.967,0,0,0,.325-3.5,13.844,13.844,0,0,0-.447-3.142l-.011-.05a2.02,2.02,0,0,0-1.621-1.582c-.125-.03-.25-.067-.374-.1a3.328,3.328,0,0,0-.578-.137C738.9,218.634,731.827,218.406,728.489,218.507Zm-25.553-.753c-.246.008-.463.017-.643.028a2.643,2.643,0,0,0-2.519,2.283,17.5,17.5,0,0,0-.371,5.142s.015.6.019.827c.036,1.965.966,3.074,3.014,3.6a24.366,24.366,0,0,0,6.842.691,39.017,39.017,0,0,0,4.191-.371,1.69,1.69,0,0,0,.984-.563,23.141,23.141,0,0,0,4-7.989,2.626,2.626,0,0,0-.139-2.124,2.52,2.52,0,0,0-1.779-1.019A119.428,119.428,0,0,0,702.937,217.754Z" transform="translate(-320.289 -129.766)" fill="#3a48cf"/></g><g transform="translate(812.302 287.876)"><text transform="translate(15.698 57.124)" fill="#3046d5" font-size="36" font-family="Roboto-Regular, Roboto"><tspan x="0" y="0">&lt;/&gt;</tspan></text></g></g></svg>